# xmcd
#
# Track frame offsets:
#	150
#	2166
#	3716
#
# Disc length: 64 seconds
#
# Revision: 0
# Processed by: cddbd v1.4PL0 Copyright (c) Steve Scherf et al.
# Submitted via: dBpowerAMP V4.0
#
DISCID=19003e03
DTITLE=V A - TRIBUTE TO SODOMIZED TOMATOES
DYEAR=1900
DGENRE=
TTITLE0=Vseanal - Dried semen
TTITLE1=Botniki - Anal Gorecum Pissflap Slap
TTITLE2=Gorod - Akaknue
EXTD=
EXTT0=
EXTT1=
EXTT2=
PLAYORDER=
